<svg height="512" viewBox="0 0 512 512" width="512" xmlns="http://www.w3.org/2000/svg"><g><g fill="#57a4ff"><circle cx="184" cy="208" r="112"/><circle cx="120" cy="368" r="32"/><circle cx="318.158" cy="113.02" r="16"/><circle cx="368" cy="320" r="72"/></g><g fill="#004fac"><path d="m496 456h-120v-56.4a80 80 0 1 0 -16 0v26.27l-27.88-16.73a8 8 0 1 0 -8.24 13.72l36.12 21.67v11.47h-168v-68.79l20.78-21.67a8.006 8.006 0 1 0 -11.56-11.08l-9.22 9.63v-36.36a120 120 0 1 0 -16 0v65.84l-18.53-11.58a40.136 40.136 0 1 0 -8.5 13.55l27.03 16.89v43.57h-160a8 8 0 0 0 0 16h480a8 8 0 0 0 0-16zm-352.58-82.79-19.18-11.99a8 8 0 1 0 -8.48 13.56l19.17 11.99a23.986 23.986 0 1 1 9.07-18.77 23.568 23.568 0 0 1 -.58 5.21zm40.58-173.21a8 8 0 0 0 -8 8v103.7a104 104 0 1 1 16 0v-28.39l29.66-29.65a8 8 0 0 0 -11.32-11.32l-18.34 18.35v-52.69a8 8 0 0 0 -8-8zm184 112a8 8 0 0 0 -8 8v63.48a64 64 0 1 1 16 0v-34.54l27.58-13.78a8.005 8.005 0 0 0 -7.16-14.32l-20.42 10.22v-11.06a8 8 0 0 0 -8-8z"/><path d="m301.969 130.737a23.825 23.825 0 0 0 16.163 6.284q.552 0 1.107-.025a24 24 0 1 0 -17.27-6.259zm10.283-23.113a8 8 0 1 1 .509 11.3 7.979 7.979 0 0 1 -.508-11.3z"/><path d="m313.562 78.953a40 40 0 0 1 38.584 37.1 8 8 0 0 0 7.971 7.43c.191 0 .384-.006.577-.02a8 8 0 0 0 7.41-8.549 55.99 55.99 0 0 0 -54.022-51.953 8 8 0 0 0 -.52 15.992z"/><path d="m315.808 55.035a63.989 63.989 0 0 1 60.338 60.345 8 8 0 0 0 7.981 7.559c.147 0 .3 0 .447-.011a8 8 0 0 0 7.548-8.429 79.989 79.989 0 0 0 -75.432-75.44 8 8 0 1 0 -.882 15.976z"/><path d="m184 192a8 8 0 0 0 8-8v-8a8 8 0 0 0 -16 0v8a8 8 0 0 0 8 8z"/></g></g></svg>