<svg id="line" height="512" viewBox="0 0 64 64" width="512" xmlns="http://www.w3.org/2000/svg"><path d="m57 19h-17.913a5 5 0 0 0 -4.987 5.4l1.773 22a5.026 5.026 0 0 0 4.986 4.6h1.184v1a3 3 0 0 0 3 3v7a1 1 0 0 0 1 1h4a1 1 0 0 0 1-1v-7a3 3 0 0 0 3-3v-1h1.185a5.026 5.026 0 0 0 4.983-4.6l1.773-22a5 5 0 0 0 -4.984-5.4zm-4.957 33a1 1 0 0 1 -1 1h-6a1 1 0 0 1 -1-1v-1h8zm2-10h-12a1 1 0 0 1 0-2h12a1 1 0 1 1 0 2zm1-6h-14a1 1 0 0 1 0-2h14a1 1 0 1 1 0 2zm1-6h-16a1 1 0 0 1 0-2h16a1 1 0 1 1 0 2z" fill="#c4a2fc"/><g fill="#151a6a"><path d="m27 11a15 15 0 0 1 10.729 25.482 1 1 0 1 0 1.43 1.4 17 17 0 1 0 -24.318 0 1 1 0 1 0 1.429-1.4 15 15 0 0 1 10.73-25.482z"/><path d="m27 1a25 25 0 0 0 -10.262 47.8 1 1 0 1 0 .822-1.824 23 23 0 1 1 18.879 0 1 1 0 1 0 .823 1.824 25 25 0 0 0 -10.262-47.8z"/><path d="m31.743 33.634a9 9 0 1 0 -9.487 0 6.99 6.99 0 0 0 -3.776 8.454l1.689 5.4a4.976 4.976 0 0 0 4.771 3.512h4.119a4.976 4.976 0 0 0 4.772-3.509l1.688-5.4a6.99 6.99 0 0 0 -3.776-8.454zm-11.743-7.634a7 7 0 1 1 7 7 7.008 7.008 0 0 1 -7-7zm13.611 15.491-1.688 5.4a2.988 2.988 0 0 1 -2.864 2.109h-4.119a2.987 2.987 0 0 1 -2.863-2.1l-1.689-5.4a5 5 0 0 1 4.773-6.5h3.678a5 5 0 0 1 4.772 6.491z"/></g></svg>