<?xml version="1.0" encoding="iso-8859-1"?>
<!-- Generator: Adobe Illustrator 19.0.0, SVG Export Plug-In . SVG Version: 6.00 Build 0)  -->
<svg version="1.1" id="Capa_1" xmlns="http://www.w3.org/2000/svg" xmlns:xlink="http://www.w3.org/1999/xlink" x="0px" y="0px"
	 viewBox="0 0 512 512" style="enable-background:new 0 0 512 512;" xml:space="preserve">
<path style="fill:#80CBC4;" d="M10.667,394.667h64c5.891,0,10.667,4.776,10.667,10.667v85.333c0,5.891-4.776,10.667-10.667,10.667
	h-64C4.776,501.333,0,496.558,0,490.667v-85.333C0,399.442,4.776,394.667,10.667,394.667z"/>
<path style="fill:#4DB6AC;" d="M117.333,309.333h64c5.891,0,10.667,4.776,10.667,10.667v170.667c0,5.891-4.776,10.667-10.667,10.667
	h-64c-5.891,0-10.667-4.776-10.667-10.667V320C106.667,314.109,111.442,309.333,117.333,309.333z"/>
<path style="fill:#26A69A;" d="M224,202.667h64c5.891,0,10.667,4.776,10.667,10.667v277.333c0,5.891-4.776,10.667-10.667,10.667h-64
	c-5.891,0-10.667-4.776-10.667-10.667V213.333C213.333,207.442,218.109,202.667,224,202.667z"/>
<path style="fill:#009688;" d="M330.667,96h64c5.891,0,10.667,4.776,10.667,10.667v384c0,5.891-4.776,10.667-10.667,10.667h-64
	c-5.891,0-10.667-4.776-10.667-10.667v-384C320,100.776,324.776,96,330.667,96z"/>
<path style="fill:#00897B;" d="M437.333,10.667h64c5.891,0,10.667,4.776,10.667,10.667v469.333c0,5.891-4.776,10.667-10.667,10.667
	h-64c-5.891,0-10.667-4.776-10.667-10.667V21.333C426.667,15.442,431.442,10.667,437.333,10.667z"/>
<g>
</g>
<g>
</g>
<g>
</g>
<g>
</g>
<g>
</g>
<g>
</g>
<g>
</g>
<g>
</g>
<g>
</g>
<g>
</g>
<g>
</g>
<g>
</g>
<g>
</g>
<g>
</g>
<g>
</g>
</svg>
