<?xml version="1.0" encoding="iso-8859-1"?>
<!-- Generator: Adobe Illustrator 19.0.0, SVG Export Plug-In . SVG Version: 6.00 Build 0)  -->
<svg version="1.1" id="Capa_1" xmlns="http://www.w3.org/2000/svg" xmlns:xlink="http://www.w3.org/1999/xlink" x="0px" y="0px"
	 viewBox="0 0 512 512" style="enable-background:new 0 0 512 512;" xml:space="preserve">
<path style="fill:#455A64;" d="M181.333,0h149.333c41.237,0,74.667,33.429,74.667,74.667v362.667
	c0,41.237-33.429,74.667-74.667,74.667H181.333c-41.237,0-74.667-33.429-74.667-74.667V74.667C106.667,33.429,140.096,0,181.333,0z"
	/>
<rect x="128" y="106.667" style="fill:#CFD8DC;" width="256" height="277.333"/>
<g>
	<path style="fill:#FAFAFA;" d="M256,469.333c-11.782,0-21.333-9.551-21.333-21.333c0-11.782,9.551-21.333,21.333-21.333
		c11.782,0,21.333,9.551,21.333,21.333C277.333,459.782,267.782,469.333,256,469.333z"/>
	<path style="fill:#FAFAFA;" d="M288,64h-64c-5.891,0-10.667-4.776-10.667-10.667S218.109,42.667,224,42.667h64
		c5.891,0,10.667,4.776,10.667,10.667S293.891,64,288,64z"/>
	<path style="fill:#FAFAFA;" d="M331.093,64c-5.891,0-10.667-4.776-10.667-10.667c-0.001-5.809,4.646-10.55,10.453-10.667h0.213
		c5.891,0,10.667,4.776,10.667,10.667S336.984,64,331.093,64z"/>
</g>
<g>
	<path style="fill:#2196F3;" d="M218.283,250.283c-4.092,4.237-3.975,10.99,0.262,15.083c4.134,3.992,10.687,3.992,14.82,0
		c12.662-12.085,32.586-12.085,45.248,0c4.237,4.092,10.99,3.975,15.083-0.262c3.992-4.134,3.992-10.687,0-14.82
		C272.593,230.141,239.386,230.141,218.283,250.283z"/>
	<path style="fill:#2196F3;" d="M188.117,220.117c-4.092,4.237-3.975,10.99,0.262,15.083c4.134,3.992,10.687,3.992,14.82,0
		c29.184-29.104,76.416-29.104,105.6,0c4.237,4.092,10.99,3.975,15.083-0.262c3.992-4.134,3.992-10.687,0-14.82
		C286.358,182.709,225.642,182.709,188.117,220.117z"/>
	<path style="fill:#2196F3;" d="M354.133,189.867c-54.21-54.167-142.056-54.167-196.267,0c-4.237,4.093-4.355,10.845-0.262,15.083
		c4.093,4.237,10.845,4.355,15.083,0.262c0.089-0.086,0.176-0.173,0.262-0.262c45.85-45.748,120.08-45.748,165.931,0
		c4.165,4.212,10.956,4.25,15.168,0.085C358.26,200.87,358.298,194.079,354.133,189.867L354.133,189.867z"/>
	<path style="fill:#2196F3;" d="M256,277.333c-11.782,0-21.333,9.551-21.333,21.333c0,11.782,9.551,21.333,21.333,21.333
		c11.782,0,21.333-9.551,21.333-21.333C277.333,286.885,267.782,277.333,256,277.333z"/>
</g>
<path d="M330.667,512H181.333c-41.237,0-74.667-33.429-74.667-74.667V74.667C106.667,33.429,140.096,0,181.333,0h149.333
	c41.237,0,74.667,33.429,74.667,74.667l0,0v362.667C405.333,478.571,371.904,512,330.667,512z M181.333,21.333
	C151.878,21.333,128,45.211,128,74.667v362.667c0,29.455,23.878,53.333,53.333,53.333h149.333c29.455,0,53.333-23.878,53.333-53.333
	V74.667c0-29.455-23.878-53.333-53.333-53.333H181.333z"/>
<path d="M394.667,106.667H117.333c-5.891,0-10.667-4.776-10.667-10.667c0-5.891,4.776-10.667,10.667-10.667h277.333
	c5.891,0,10.667,4.776,10.667,10.667C405.333,101.891,400.558,106.667,394.667,106.667z"/>
<path d="M394.667,405.333H117.333c-5.891,0-10.667-4.776-10.667-10.667c0-5.891,4.776-10.667,10.667-10.667h277.333
	c5.891,0,10.667,4.776,10.667,10.667C405.333,400.558,400.558,405.333,394.667,405.333z"/>
<path d="M256,469.333c-11.782,0-21.333-9.551-21.333-21.333c0-11.782,9.551-21.333,21.333-21.333
	c11.782,0,21.333,9.551,21.333,21.333C277.333,459.782,267.782,469.333,256,469.333z"/>
<path d="M288,64h-64c-5.891,0-10.667-4.776-10.667-10.667S218.109,42.667,224,42.667h64c5.891,0,10.667,4.776,10.667,10.667
	S293.891,64,288,64z"/>
<path d="M331.093,64c-5.891,0-10.667-4.776-10.667-10.667c-0.001-5.809,4.646-10.55,10.453-10.667h0.213
	c5.891,0,10.667,4.776,10.667,10.667S336.984,64,331.093,64z"/>
<path d="M286.165,268.501c-2.831,0.005-5.548-1.115-7.552-3.115c-12.662-12.085-32.586-12.085-45.248,0
	c-4.237,4.092-10.99,3.975-15.083-0.262c-3.992-4.134-3.992-10.687,0-14.82c21.103-20.141,54.31-20.141,75.413,0
	c4.171,4.16,4.179,10.914,0.019,15.085c-2.006,2.011-4.731,3.139-7.571,3.134L286.165,268.501z"/>
<path d="M316.352,238.315c-2.831,0.005-5.548-1.115-7.552-3.115c-29.184-29.104-76.416-29.104-105.6,0
	c-4.237,4.092-10.99,3.975-15.083-0.262c-3.992-4.134-3.992-10.687,0-14.82c37.524-37.409,98.241-37.409,135.765,0
	c4.171,4.16,4.179,10.914,0.019,15.085c-2.006,2.011-4.731,3.139-7.571,3.134L316.352,238.315z"/>
<path d="M346.517,208.149c-2.831,0.005-5.548-1.115-7.552-3.115c-45.85-45.748-120.08-45.748-165.931,0
	c-4.189,4.189-10.979,4.189-15.168,0c-4.189-4.189-4.189-10.979,0-15.168c54.191-54.053,141.905-54.053,196.096,0
	c4.171,4.16,4.179,10.914,0.019,15.085c-2.006,2.011-4.731,3.139-7.571,3.134L346.517,208.149z"/>
<path d="M256,320c-11.782,0-21.333-9.551-21.333-21.333c0-11.782,9.551-21.333,21.333-21.333c11.782,0,21.333,9.551,21.333,21.333
	C277.333,310.449,267.782,320,256,320z"/>
<g>
</g>
<g>
</g>
<g>
</g>
<g>
</g>
<g>
</g>
<g>
</g>
<g>
</g>
<g>
</g>
<g>
</g>
<g>
</g>
<g>
</g>
<g>
</g>
<g>
</g>
<g>
</g>
<g>
</g>
</svg>
