<svg id="Layer_1" enable-background="new 0 0 513.37 513.37" height="512" viewBox="0 0 513.37 513.37" width="512" xmlns="http://www.w3.org/2000/svg"><g><g><path d="m497.691 159.818c-8.284 0-15-6.716-15-15v-114.818h-105.8c-8.284 0-15-6.716-15-15s6.716-15 15-15h120.801c8.284 0 15 6.716 15 15v129.818c-.001 8.285-6.716 15-15.001 15z" fill="#141466"/></g><g><path d="m15.77 150.801c-8.284 0-15-6.716-15-15v-120.801c0-8.284 6.716-15 15-15h129.818c8.284 0 15 6.716 15 15s-6.716 15-15 15h-114.818v105.801c0 8.284-6.716 15-15 15z" fill="#012f7e"/></g><g><path d="m136.479 513.37h-120.8c-8.284 0-15-6.716-15-15v-129.818c0-8.284 6.716-15 15-15s15 6.716 15 15v114.818h105.801c8.284 0 15 6.716 15 15s-6.716 15-15.001 15z" fill="#012f7e"/></g><path d="m75.569 312.9h121.227v124.008h-121.227z" fill="#e6ffff"/><path d="m196.757 451.939-121.227-.062c-8.284-.004-14.997-6.724-14.992-15.008l.063-124.008c.004-8.284 6.723-14.997 15.008-14.992l121.228.062c8.284.004 14.997 6.723 14.992 15.008l-.063 124.008c-.006 8.284-6.725 14.996-15.009 14.992zm-106.212-30.054 91.228.047.048-94.008-91.228-.047z" fill="#012f7e"/><g><path d="m196.857 270.915h-32.166c-8.284 0-15-6.716-15-15s6.716-15 15-15h32.166c8.284 0 15 6.716 15 15s-6.715 15-15 15z" fill="#012f7e"/></g><g><path d="m107.478 270.915h-31.848c-8.284 0-15-6.716-15-15s6.716-15 15-15h31.848c8.284 0 15 6.716 15 15s-6.716 15-15 15z" fill="#012f7e"/></g><g><path d="m256.742 213.684c-8.284 0-15-6.716-15-15v-124.008c0-8.284 6.716-15 15-15s15 6.716 15 15v124.008c0 8.284-6.716 15-15 15z" fill="#012f7e"/></g><path d="m75.691 74.614h121.227v124.008h-121.227z" fill="#e6ffff"/><path d="m196.879 213.653-121.228-.062c-8.284-.004-14.997-6.723-14.992-15.008l.063-124.008c.004-8.284 6.723-14.997 15.008-14.992l121.228.062c8.284.004 14.997 6.723 14.992 15.008l-.063 124.008c-.005 8.284-6.724 14.996-15.008 14.992zm-106.212-30.054 91.228.047.048-94.008-91.228-.047z" fill="#012f7e"/><path d="m316.908 74.738h121.227v124.008h-121.227z" fill="#cff"/><path d="m438.096 213.776-121.227-.062c-8.284-.004-14.997-6.723-14.992-15.008l.063-124.008c.004-8.284 6.723-14.997 15.008-14.992l121.227.062c8.284.004 14.997 6.723 14.992 15.008l-.063 124.008c-.005 8.284-6.724 14.997-15.008 14.992zm-106.211-30.054 91.227.047.048-94.008-91.227-.047z" fill="#141466"/><g><path d="m147.796 394.927h-23.104c-4.397 0-7.962-3.565-7.962-7.962v-23.999c0-4.397 3.565-7.962 7.962-7.962h23.104c4.397 0 7.962 3.565 7.962 7.962v23.999c0 4.398-3.565 7.962-7.962 7.962z" fill="#012f7e"/></g><path d="m497.601 362.569c-8.284 0-15 6.716-15 15v105.801h-114.819c-8.284 0-15 6.716-15 15s6.716 15 15 15h129.818c8.284 0 15-6.716 15-15v-120.801c.001-8.284-6.715-15-14.999-15z" fill="#141466"/><path d="m453.074 436.97v-71.666c0-8.284-6.716-15-15-15h-73.677v-26.062c0-8.284-6.716-15-15-15h-77.655v-38.327h113.232v20.061c0 8.284 6.716 15 15 15s15-6.716 15-15v-20.061h23.1c8.284 0 15-6.716 15-15s-6.716-15-15-15h-181.332c-8.284 0-15 6.716-15 15v180.368c0 8.284 6.716 15 15 15s15-6.716 15-15v-37.81h24.283c8.284 0 15-6.716 15-15s-6.716-15-15-15h-24.283v-29.231h62.655v26.062c0 8.284 6.716 15 15 15h73.677v41.666h-112.912c-8.284 0-15 6.716-15 15s6.716 15 15 15h127.912c8.284 0 15-6.716 15-15z" fill="#012f7e"/><g><path d="m147.796 156.641h-23.104c-4.397 0-7.962-3.565-7.962-7.962v-23.999c0-4.397 3.565-7.962 7.962-7.962h23.104c4.397 0 7.962 3.565 7.962 7.962v23.999c0 4.398-3.565 7.962-7.962 7.962z" fill="#012f7e"/></g><g><path d="m389.013 157.282h-23.104c-4.397 0-7.962-3.565-7.962-7.962v-23.999c0-4.397 3.565-7.962 7.962-7.962h23.104c4.397 0 7.962 3.565 7.962 7.962v23.999c0 4.398-3.565 7.962-7.962 7.962z" fill="#141466"/></g><g fill="#141466"><path d="m256.742 59.676c-.325 0-.642.028-.961.049v153.911c.319.02.637.049.961.049 8.284 0 15-6.716 15-15v-124.009c0-8.284-6.716-15-15-15z"/><path d="m399.975 305.976c8.284 0 15-6.716 15-15v-20.061h23.1c8.284 0 15-6.716 15-15s-6.716-15-15-15h-181.333c-.325 0-.642.028-.961.049v210.271c.32.02.637.048.961.048 8.284 0 15-6.716 15-15v-37.81h24.283c8.284 0 15-6.716 15-15s-6.716-15-15-15h-24.283v-29.231h62.655v26.061c0 8.284 6.716 15 15 15h73.677v41.666h-112.912c-8.284 0-15 6.716-15 15s6.716 15 15 15h127.912c8.284 0 15-6.716 15-15v-71.666c0-8.284-6.716-15-15-15h-73.677v-26.062c0-8.284-6.716-15-15-15h-77.655v-38.327h113.232v20.061c.001 8.285 6.716 15.001 15.001 15.001z"/></g></g></svg>