<svg height="512" viewBox="0 0 512 512" width="512" xmlns="http://www.w3.org/2000/svg" xmlns:xlink="http://www.w3.org/1999/xlink"><linearGradient id="New_Gradient_Swatch_12" gradientUnits="userSpaceOnUse" x1="233.373" x2="278.627" y1="362.627" y2="317.373"><stop offset=".011" stop-color="#80d1cb"/><stop offset="1" stop-color="#bfe8e5"/></linearGradient><linearGradient id="New_Gradient_Swatch_12-2" x1="141.448" x2="370.552" xlink:href="#New_Gradient_Swatch_12" y1="225.449" y2="-3.654"/><linearGradient id="New_Gradient_Swatch_12-3" x1="175.39" x2="336.61" xlink:href="#New_Gradient_Swatch_12" y1="259.39" y2="98.169"/><linearGradient id="New_Gradient_Swatch_12-4" x1="209.331" x2="302.669" xlink:href="#New_Gradient_Swatch_12" y1="293.332" y2="199.993"/><linearGradient id="New_Gradient_Swatch_4" gradientUnits="userSpaceOnUse" x1="163.029" x2="348.971" y1="548.971" y2="363.029"><stop offset=".011" stop-color="#cacad5"/><stop offset="1" stop-color="#ededf1"/></linearGradient><g id="_15-wifi" data-name="15-wifi"><circle cx="256" cy="340" fill="url(#New_Gradient_Swatch_12)" r="32"/><path d="m256 16a321.883 321.883 0 0 0 -229.1 94.9l28.284 28.285a284 284 0 0 1 401.638 0l28.278-28.285a321.883 321.883 0 0 0 -229.1-94.9z" fill="url(#New_Gradient_Swatch_12-2)"/><path d="m94.779 178.78 28.285 28.284a188 188 0 0 1 265.872 0l28.285-28.284a228 228 0 0 0 -322.442 0z" fill="url(#New_Gradient_Swatch_12-3)"/><path d="m162.662 246.661 28.283 28.285a92 92 0 0 1 130.11 0l28.283-28.285a132 132 0 0 0 -186.676 0z" fill="url(#New_Gradient_Swatch_12-4)"/><rect fill="url(#New_Gradient_Swatch_4)" height="80" rx="24" width="320" x="96" y="416"/><path d="m212 340a44 44 0 1 0 44-44 44.049 44.049 0 0 0 -44 44zm64 0a20 20 0 1 1 -20-20 20.023 20.023 0 0 1 20 20z"/><path d="m493.588 102.412a336 336 0 0 0 -475.176 0 12 12 0 0 0 0 16.971l28.288 28.284a12 12 0 0 0 16.971 0 272 272 0 0 1 384.668 0 12.071 12.071 0 0 0 16.971 0l28.283-28.284a12 12 0 0 0 -.005-16.971zm-36.937 19.967a296.024 296.024 0 0 0 -401.3 0l-11.324-11.322a312.021 312.021 0 0 1 423.946 0z"/><path d="m256 100a238.433 238.433 0 0 0 -169.706 70.294 12 12 0 0 0 0 16.971l28.285 28.284a12 12 0 0 0 16.971 0 176 176 0 0 1 248.9 0 12 12 0 0 0 16.971 0l28.285-28.284a12 12 0 0 0 0-16.971 238.433 238.433 0 0 0 -169.706-70.294zm132.688 90.342a200.035 200.035 0 0 0 -265.375 0l-11.333-11.332a216.032 216.032 0 0 1 288.04 0z"/><path d="m321.055 286.946a11.963 11.963 0 0 0 8.485-3.515l28.283-28.285a12 12 0 0 0 0-16.97 144 144 0 0 0 -203.646 0 12 12 0 0 0 0 16.97l28.283 28.285a12 12 0 0 0 16.971 0 80 80 0 0 1 113.138 0 11.964 11.964 0 0 0 8.486 3.515zm-129.628-28.489-11.378-11.379a120.056 120.056 0 0 1 151.9 0l-11.378 11.379a104.065 104.065 0 0 0 -129.146 0z"/><path d="m392 404h-272a36.04 36.04 0 0 0 -36 36v32a36.04 36.04 0 0 0 36 36h272a36.04 36.04 0 0 0 36-36v-32a36.04 36.04 0 0 0 -36-36zm12 68a12.013 12.013 0 0 1 -12 12h-272a12.013 12.013 0 0 1 -12-12v-32a12.013 12.013 0 0 1 12-12h272a12.013 12.013 0 0 1 12 12z"/><circle cx="256" cy="456" r="12"/><circle cx="305.304" cy="456" r="12"/><circle cx="354.609" cy="456" r="12"/><circle cx="206.696" cy="456" r="12"/><circle cx="157.391" cy="456" r="12"/></g></svg>